<?xml version="1.0" standalone="no"?>
<!DOCTYPE svg PUBLIC "-//W3C//DTD SVG 20010904//EN"
 "http://www.w3.org/TR/2001/REC-SVG-20010904/DTD/svg10.dtd">
<svg version="1.0" xmlns="http://www.w3.org/2000/svg"
 width="512.000000pt" height="512.000000pt" viewBox="0 0 512.000000 512.000000"
 preserveAspectRatio="xMidYMid meet">

<g transform="translate(0.000000,512.000000) scale(0.100000,-0.100000)"
fill="#000000" stroke="none">
<path d="M1274 5069 c-108 -12 -292 -59 -400 -103 -404 -165 -712 -518 -809
-928 -36 -153 -44 -245 -55 -589 -19 -608 -6 -1943 20 -2156 24 -190 94 -412
172 -547 199 -342 542 -584 938 -662 164 -33 240 -34 1418 -34 1034 0 1206 2
1300 15 364 54 618 179 847 416 148 154 236 296 305 494 73 210 89 350 100
920 17 845 9 1678 -20 1940 -37 336 -163 607 -385 830 -104 104 -201 173 -351
250 -119 61 -214 94 -384 133 l-115 26 -1250 2 c-687 1 -1286 -2 -1331 -7z
m2616 -122 c220 -39 406 -110 566 -217 100 -67 255 -222 319 -320 136 -208
192 -390 216 -716 18 -224 18 -1981 1 -2192 -28 -345 -92 -566 -217 -759 -65
-99 -250 -290 -342 -352 -181 -121 -388 -189 -678 -221 -120 -13 -2277 -13
-2405 0 -249 26 -394 68 -565 161 -376 206 -588 532 -648 998 -9 71 -12 387
-12 1241 0 1045 2 1156 18 1270 32 228 88 387 189 542 218 332 558 531 991
577 45 5 620 8 1277 6 1062 -2 1206 -4 1290 -18z"/>
<path d="M2504 4247 c-34 -30 -34 -66 1 -117 24 -35 27 -45 20 -87 -4 -27 -12
-54 -18 -61 -6 -8 -140 -79 -299 -158 -158 -80 -288 -149 -288 -155 0 -16 46
-82 76 -110 133 -119 453 -183 725 -145 155 22 219 39 314 86 90 44 113 61
148 113 l24 35 7 -141 c3 -78 9 -226 12 -329 l7 -187 -84 6 c-46 2 -87 10 -91
15 -3 6 -9 36 -13 65 -4 30 -9 53 -11 50 -8 -7 -11 -691 -4 -757 6 -53 7 -44
6 53 -1 95 2 120 14 127 10 7 11 10 3 10 -7 0 -13 7 -13 16 0 8 4 13 9 9 6 -3
11 12 13 32 2 21 18 -99 36 -267 18 -168 34 -313 35 -323 2 -17 -27 -18 -552
-17 -305 0 -555 1 -556 3 -2 3 31 398 55 669 25 278 35 455 26 446 -4 -3 -14
-32 -23 -65 -8 -32 -20 -61 -26 -65 -7 -4 -41 -8 -76 -8 l-64 0 7 293 6 293
-23 22 -23 22 -18 -193 c-10 -105 -23 -237 -29 -292 -15 -142 -14 -829 1 -995
16 -168 23 -191 70 -223 78 -55 93 -57 352 -57 l240 0 0 -24 c0 -62 -32 -180
-64 -242 -20 -37 -36 -74 -36 -82 0 -10 -6 -12 -17 -7 -120 50 -272 45 -334
-11 -18 -16 -19 -32 -19 -241 l0 -224 25 -24 c23 -24 29 -25 163 -25 172 0
171 -1 183 130 11 123 37 319 44 329 2 5 -4 20 -15 33 -14 19 -16 28 -8 36 16
16 31 15 22 0 -4 -6 8 0 28 15 35 27 35 28 24 70 -6 23 -14 44 -18 47 -4 3 -3
12 2 20 8 13 10 12 10 -2 0 -10 5 -18 10 -18 6 0 10 -5 10 -11 0 -6 6 -17 14
-25 12 -12 15 -6 21 39 10 70 24 105 34 88 5 -7 6 19 3 58 l-5 71 222 0 c169
0 221 -3 222 -12 1 -7 3 -25 5 -40 1 -16 -1 -28 -7 -28 -5 0 -8 -33 -8 -72 l2
-73 9 70 c5 39 10 87 11 107 1 20 4 36 7 36 3 -1 12 1 20 5 8 3 45 15 82 27
83 26 144 69 152 107 17 78 28 260 33 558 6 367 -4 585 -42 890 l-24 190 -38
34 c-21 19 -155 91 -309 166 -149 72 -281 142 -292 153 -33 33 -31 123 3 164
33 39 32 63 -4 99 -36 36 -79 38 -117 6z m351 -529 c77 -44 144 -83 149 -88
11 -11 -49 -36 -149 -61 -118 -30 -399 -38 -515 -14 -85 17 -220 64 -220 76 0
3 82 50 183 104 100 54 200 108 222 120 l40 23 75 -41 c41 -22 138 -76 215
-119z m204 -1025 c0 -31 -2 -34 -9 -18 -12 28 -12 55 0 55 6 0 10 -17 9 -37z
m-509 -843 c0 -5 -9 -10 -20 -10 -11 0 -20 5 -20 10 0 6 9 10 20 10 11 0 20
-4 20 -10z m11 -54 c-4 -23 -6 -26 -9 -11 -2 11 -9 25 -14 32 -7 8 -4 11 9 10
15 -1 18 -7 14 -31z m-50 -33 c-4 -28 -6 -32 -9 -15 -3 22 3 52 11 52 1 0 1
-17 -2 -37z m-17 -199 c4 -10 1 -14 -6 -12 -15 5 -23 28 -10 28 5 0 13 -7 16
-16z m-35 -18 c9 -11 9 -16 0 -22 -8 -4 -9 -3 -5 4 4 7 1 12 -9 12 -9 0 -13 5
-10 10 8 13 10 13 24 -4z"/>
<path d="M645 3970 c-3 -5 -1 -10 4 -10 6 0 11 5 11 10 0 6 -2 10 -4 10 -3 0
-8 -4 -11 -10z"/>
<path d="M1580 3966 c0 -2 7 -9 15 -16 13 -11 14 -10 9 4 -5 14 -24 23 -24 12z"/>
<path d="M590 3929 c0 -5 5 -7 10 -4 6 3 10 8 10 11 0 2 -4 4 -10 4 -5 0 -10
-5 -10 -11z"/>
<path d="M1141 3936 c2 -2 20 -6 39 -10 25 -4 31 -3 20 4 -14 9 -69 15 -59 6z"/>
<path d="M1015 3908 c-16 -6 -40 -19 -51 -30 -12 -10 -27 -18 -35 -16 -7 2
-13 -4 -14 -12 0 -9 -8 -14 -20 -12 -15 2 -17 1 -6 -6 15 -11 5 -36 -10 -26
-5 3 -8 0 -7 -8 2 -10 -11 -13 -52 -12 -30 1 -49 -1 -42 -4 8 -2 -2 -17 -28
-39 -62 -53 -83 -102 -78 -183 4 -77 31 -122 101 -168 l41 -27 305 0 c168 0
321 3 339 7 23 5 31 4 26 -3 -12 -19 30 7 51 33 l20 23 -26 -22 c-39 -35 -47
-27 -12 10 53 54 67 123 39 190 -15 37 -91 129 -99 120 -3 -3 -18 4 -33 16
-15 11 -33 21 -40 21 -8 0 -14 5 -14 11 0 25 -103 118 -148 133 -51 18 -161
20 -207 4z m190 -100 c36 -18 84 -71 95 -103 9 -27 15 -31 35 -27 31 6 91 -31
116 -72 21 -34 25 -87 9 -117 -10 -18 -24 -19 -321 -19 l-311 0 -34 34 c-29
29 -34 41 -34 80 0 37 5 52 26 73 22 22 32 25 78 21 52 -4 54 -4 65 27 34 96
181 150 276 103z"/>
<path d="M3986 3898 c-9 -12 -16 -29 -16 -38 0 -26 30 -60 54 -60 31 0 46 18
46 56 0 59 -54 85 -84 42z"/>
<path d="M1292 3896 c7 -8 15 -12 17 -11 5 6 -10 25 -20 25 -5 0 -4 -6 3 -14z"/>
<path d="M900 3890 c0 -5 4 -10 9 -10 6 0 13 5 16 10 3 6 -1 10 -9 10 -9 0
-16 -4 -16 -10z"/>
<path d="M1323 3867 c0 -8 6 -14 14 -14 9 0 10 4 2 14 -6 7 -12 13 -14 13 -1
0 -2 -6 -2 -13z"/>
<path d="M1346 3825 c4 -8 7 -15 9 -15 1 0 8 7 15 15 10 13 9 15 -8 15 -15 0
-20 -5 -16 -15z"/>
<path d="M3782 3818 c-16 -16 -15 -53 3 -88 19 -37 31 -37 66 -4 27 25 27 28
13 55 -22 43 -59 60 -82 37z"/>
<path d="M4219 3801 c-37 -38 -37 -50 5 -90 l33 -32 22 43 c24 50 27 78 9 96
-19 19 -37 14 -69 -17z"/>
<path d="M803 3813 c9 -2 23 -2 30 0 6 3 -1 5 -18 5 -16 0 -22 -2 -12 -5z"/>
<path d="M1373 3798 c1 -9 6 -14 12 -10 5 4 26 12 45 19 l35 11 -47 -1 c-37
-2 -46 -6 -45 -19z"/>
<path d="M1415 3770 c-13 -6 -15 -9 -5 -9 8 0 22 4 30 9 18 12 2 12 -25 0z"/>
<path d="M660 3726 c0 -8 4 -17 9 -20 5 -4 7 3 4 14 -6 23 -13 26 -13 6z"/>
<path d="M1497 3716 c-4 -10 -1 -13 7 -10 8 3 17 1 21 -5 3 -6 1 -11 -5 -11
-6 0 2 -17 18 -37 16 -21 33 -50 36 -65 4 -16 12 -28 18 -28 9 0 9 3 0 12 -7
7 -12 22 -12 34 0 11 -12 34 -26 50 -17 17 -22 30 -15 32 7 2 4 11 -10 23 -26
23 -25 23 -32 5z"/>
<path d="M630 3670 c0 -5 5 -10 10 -10 6 0 10 5 10 10 0 6 -4 10 -10 10 -5 0
-10 -4 -10 -10z"/>
<path d="M1653 3595 c0 -38 2 -53 4 -32 2 20 2 52 0 70 -2 17 -4 1 -4 -38z"/>
<path d="M3610 3615 c-10 -12 -10 -21 -2 -40 20 -43 114 -49 120 -8 7 49 -86
87 -118 48z"/>
<path d="M4327 3612 c-21 -23 -22 -58 -1 -66 54 -21 107 7 102 53 -3 23 -8 26
-44 29 -29 2 -45 -2 -57 -16z"/>
<path d="M1608 3538 c-3 -46 -1 -87 4 -92 4 -6 8 31 8 82 0 51 -2 92 -4 92 -2
0 -6 -37 -8 -82z"/>
<path d="M603 3505 c0 -22 2 -30 4 -17 2 12 2 30 0 40 -3 9 -5 -1 -4 -23z"/>
<path d="M1652 3465 c0 -16 2 -22 5 -12 2 9 2 23 0 30 -3 6 -5 -1 -5 -18z"/>
<path d="M1572 3460 c0 -14 2 -19 5 -12 2 6 2 18 0 25 -3 6 -5 1 -5 -13z"/>
<path d="M4328 3459 c-43 -24 0 -89 59 -89 22 0 36 6 43 20 9 17 6 25 -19 50
-31 31 -54 36 -83 19z"/>
<path d="M3623 3448 c-35 -46 -24 -78 28 -78 46 0 82 30 77 63 -2 18 -10 22
-49 25 -29 2 -49 -2 -56 -10z"/>
<path d="M682 3430 c0 -14 2 -19 5 -12 2 6 2 18 0 25 -3 6 -5 1 -5 -13z"/>
<path d="M603 3380 c0 -30 2 -43 4 -27 2 15 2 39 0 55 -2 15 -4 2 -4 -28z"/>
<path d="M1530 3359 c0 -5 5 -7 10 -4 6 3 10 8 10 11 0 2 -4 4 -10 4 -5 0 -10
-5 -10 -11z"/>
<path d="M4222 3307 c-38 -40 -39 -51 -7 -82 31 -32 81 -34 90 -4 7 20 -25
101 -43 113 -5 3 -23 -9 -40 -27z"/>
<path d="M3795 3304 c-23 -23 -37 -63 -30 -85 10 -29 59 -25 84 7 28 36 26 49
-8 73 -27 20 -30 20 -46 5z"/>
<path d="M1590 3230 c0 -5 5 -10 11 -10 5 0 7 5 4 10 -3 6 -8 10 -11 10 -2 0
-4 -4 -4 -10z"/>
<path d="M4010 3222 c-37 -13 -48 -53 -28 -97 17 -37 67 -32 87 9 21 45 -17
103 -59 88z"/>
<path d="M725 3197 c10 -8 15 -19 11 -25 -5 -9 86 -12 363 -12 203 0 372 3
374 8 3 4 -156 6 -354 5 -352 -3 -359 -2 -359 17 0 15 -7 20 -27 20 -25 0 -26
-1 -8 -13z"/>
<path d="M1470 3199 c0 -5 5 -7 10 -4 6 3 10 8 10 11 0 2 -4 4 -10 4 -5 0 -10
-5 -10 -11z"/>
<path d="M660 3190 c8 -5 22 -9 30 -9 10 0 8 3 -5 9 -27 12 -43 12 -25 0z"/>
<path d="M3063 2467 c1 -15 5 -27 10 -27 10 0 9 22 -2 39 -7 10 -9 7 -8 -12z"/>
<path d="M3060 2383 c0 -11 7 -27 16 -34 15 -12 16 -11 9 11 -10 35 -25 49
-25 23z"/>
<path d="M1225 1851 c-55 -34 -204 -171 -280 -258 -41 -47 -89 -114 -106 -149
-62 -130 -35 -262 72 -358 195 -176 502 -51 559 227 21 104 -15 260 -96 417
-70 135 -94 155 -149 121z m55 -213 c32 -84 35 -103 35 -193 0 -130 -21 -192
-84 -255 -81 -81 -177 -90 -250 -24 -51 45 -64 81 -59 153 3 44 12 71 38 112
31 49 265 299 279 299 4 0 22 -42 41 -92z"/>
<path d="M4014 1631 c-36 -9 -95 -44 -114 -66 -8 -10 -18 -11 -36 -4 -45 17
-118 10 -165 -14 -159 -84 -170 -341 -17 -416 42 -20 58 -21 331 -21 178 0
296 4 314 11 128 48 152 258 39 331 -20 13 -38 30 -41 40 -9 27 -93 98 -141
119 -51 23 -125 32 -170 20z m151 -119 c16 -10 39 -32 50 -50 11 -17 26 -31
33 -32 48 -1 108 -90 98 -143 -14 -68 -8 -67 -323 -67 -176 0 -292 4 -304 10
-48 26 -64 121 -29 178 38 61 149 91 214 57 29 -15 30 -15 58 20 16 19 44 39
61 44 41 13 104 5 142 -17z"/>
<path d="M2991 1564 c0 -11 3 -14 6 -6 3 7 2 16 -1 19 -3 4 -6 -2 -5 -13z"/>
<path d="M2750 1514 c-72 -30 -92 -49 -85 -79 7 -32 25 -191 35 -300 5 -55 12
-107 15 -116 11 -30 54 -39 179 -39 177 0 166 -18 166 275 l0 233 -36 22 c-27
18 -55 24 -122 27 -77 3 -94 1 -152 -23z"/>
</g>
</svg>
